<svg width="14" height="14" viewBox="0 0 14 14" fill="none" xmlns="http://www.w3.org/2000/svg">
<path d="M5.74623 0.793806C5.97642 0.631365 6.25147 0.544477 6.53326 0.545179C6.81506 0.545881 7.08966 0.634137 7.31904 0.797723C7.55156 0.967437 7.72792 1.20243 7.82458 1.47397L8.40851 3.26641C8.55835 3.71568 8.81066 4.12399 9.14551 4.45908C9.48036 4.79417 9.88858 5.04688 10.3379 5.19723L12.155 5.7847C12.4237 5.88191 12.655 6.0609 12.8165 6.29647C12.978 6.53204 13.0614 6.8123 13.0551 7.09777C13.0487 7.38323 12.9529 7.65951 12.7811 7.88768C12.6093 8.11585 12.3703 8.28439 12.0975 8.36958L10.3014 8.95444C9.85156 9.10401 9.44274 9.35608 9.1072 9.69073C8.77165 10.0254 8.51859 10.4334 8.36801 10.8826L7.77756 12.6947C7.68248 12.9616 7.50651 13.1923 7.27412 13.3547C7.04174 13.517 6.7645 13.603 6.48097 13.6005C6.19744 13.5981 5.92172 13.5074 5.69217 13.3411C5.46262 13.1747 5.29065 12.941 5.20019 12.6725L4.6032 10.8448C4.45334 10.4076 4.20619 10.0101 3.88036 9.68225C3.55452 9.35436 3.1585 9.10462 2.72211 8.95183L0.906327 8.36827C0.63931 8.27305 0.408583 8.09711 0.246178 7.86488C0.0837725 7.63265 -0.00225299 7.35564 4.48626e-05 7.07232C0.00234271 6.78901 0.0928497 6.51343 0.259001 6.28386C0.425151 6.05429 0.658702 5.88211 0.927228 5.79123L2.72211 5.21029C3.17419 5.06036 3.58475 4.80649 3.92077 4.4691C4.25678 4.13171 4.50888 3.72021 4.65676 3.26771L5.24722 1.45177C5.34127 1.18545 5.51632 0.955687 5.74623 0.793806Z" fill="#9547A5"/>
</svg>
